<?xml version='1.0' encoding='utf-8'?>
<svg xmlns="http://www.w3.org/2000/svg" viewport="0 0 129 129">
  <g id="info">
    <path d="m64.5,122.6c32,0 58-26 58-58s-26-58-58-58-58.1,26-58.1,58 26.1,58 58.1,58zm0-108c27.5,5.32907e-15 49.9,22.4 49.9,49.9s-22.4,49.9-49.9,49.9-49.9-22.4-49.9-49.9 22.4-49.9 49.9-49.9z"/>
    <path d="m54.8,90.1c-2.3,0-4.1,1.8-4.1,4.1s1.8,4.1 4.1,4.1h26.9c2.3,0 4.1-1.8 4.1-4.1s-1.8-4.1-4.1-4.1h-9.4v-36.1c0-2.3-1.8-4.1-4.1-4.1h-13.4c-2.3,0-4.1,1.8-4.1,4.1 0,2.3 1.8,4.1 4.1,4.1h9.4v32h-9.4z"/>
    <circle cx="62.7" cy="36.5" r="6.6"/>
  </g>
  <g id="play">
    <path d="m64.5,122.7c32.1,0 58.2-26.1 58.2-58.2s-26.1-58.2-58.2-58.2-58.2,26.1-58.2,58.2 26.1,58.2 58.2,58.2zm0-108.2c27.6,0 50,22.4 50,50s-22.4,50-50,50-50-22.5-50-50 22.4-50 50-50z"/>
    <path d="m53.1,94.5c0.5,0.2 1,0.3 1.6,0.3 1.1,0 2.1-0.4 2.9-1.2l26.4-26.5c0.8-0.8 1.2-1.8 1.2-2.9s-0.4-2.2-1.2-2.9l-26.5-26.5c-1.2-1.2-2.9-1.5-4.5-0.9-1.5,0.6-2.5,2.1-2.5,3.8v53c0,1.6 1,3.1 2.6,3.8zm5.6-46.9l16.6,16.6-16.6,16.6v-33.2z"/>
  </g>
  <g id="pause">
    <path d="m64.5,122.6c32.1,0 58.1-26.1 58.1-58.1s-26-58.1-58.1-58.1-58.1,26-58.1,58.1 26,58.1 58.1,58.1zm0-108.1c27.5,0 50,22.4 50,50s-22.4,50-50,50-50-22.4-50-50 22.5-50 50-50z"/>
    <path d="m53.8,94.7c2.3,0 4.1-1.8 4.1-4.1v-53.1c0-2.3-1.8-4.1-4.1-4.1-2.3,0-4.1,1.8-4.1,4.1v53.1c7.10543e-15,2.3 1.8,4.1 4.1,4.1z"/>
    <path d="m75.2,94.7c2.3,0 4.1-1.8 4.1-4.1v-53.1c0-2.3-1.8-4.1-4.1-4.1-2.3,0-4.1,1.8-4.1,4.1v53.1c-1.42109e-14,2.3 1.8,4.1 4.1,4.1z"/>
  </g>
</svg>